<svg width="130" height="240" viewBox="0 0 130 240" fill="none" xmlns="http://www.w3.org/2000/svg">
<rect width="130" height="240" rx="10" fill="white"/>
<rect opacity="0.1" x="67" y="24" width="55" height="8" rx="2" fill="#013A52"/>
<rect opacity="0.1" x="67" y="45" width="55" height="2" rx="1" fill="#013A52"/>
<rect opacity="0.1" x="67" y="50" width="26" height="2" rx="1" fill="#013A52"/>
<rect opacity="0.1" x="67" y="55" width="45" height="2" rx="1" fill="#013A52"/>
<rect opacity="0.1" x="8" y="24" width="55" height="54" rx="2" fill="#013A52"/>
<rect opacity="0.1" x="8" y="86" width="35" height="65" rx="2.2963" fill="#013A52"/>
<rect opacity="0.1" x="47" y="86" width="36" height="65" rx="2.2963" fill="#013A52"/>
<rect opacity="0.1" x="87" y="86" width="35" height="65" rx="2.2963" fill="#013A52"/>
<path d="M69.3415 36.4878C69.3914 36.3343 69.6086 36.3343 69.6585 36.4878L70.0239 37.6123C70.0462 37.681 70.1102 37.7275 70.1824 37.7275H71.3647C71.5261 37.7275 71.5933 37.9341 71.4627 38.029L70.5061 38.7239C70.4477 38.7664 70.4233 38.8416 70.4456 38.9102L70.811 40.0347C70.8608 40.1883 70.6851 40.3159 70.5545 40.221L69.598 39.5261C69.5395 39.4836 69.4605 39.4836 69.402 39.5261L68.4455 40.221C68.3149 40.3159 68.1392 40.1883 68.189 40.0347L68.5544 38.9102C68.5767 38.8416 68.5523 38.7664 68.4939 38.7239L67.5373 38.029C67.4067 37.9341 67.4739 37.7275 67.6353 37.7275H68.8176C68.8898 37.7275 68.9538 37.681 68.9761 37.6123L69.3415 36.4878Z" fill="#F4BF1A"/>
<path d="M74.3415 36.4878C74.3914 36.3343 74.6086 36.3343 74.6585 36.4878L75.0239 37.6123C75.0462 37.681 75.1102 37.7275 75.1824 37.7275H76.3647C76.5261 37.7275 76.5933 37.9341 76.4627 38.029L75.5061 38.7239C75.4477 38.7664 75.4233 38.8416 75.4456 38.9102L75.811 40.0347C75.8608 40.1883 75.6851 40.3159 75.5545 40.221L74.598 39.5261C74.5395 39.4836 74.4605 39.4836 74.402 39.5261L73.4455 40.221C73.3149 40.3159 73.1392 40.1883 73.189 40.0347L73.5544 38.9102C73.5767 38.8416 73.5523 38.7664 73.4939 38.7239L72.5373 38.029C72.4067 37.9341 72.4739 37.7275 72.6353 37.7275H73.8176C73.8898 37.7275 73.9538 37.681 73.9761 37.6123L74.3415 36.4878Z" fill="#F4BF1A"/>
<path d="M79.3415 36.4878C79.3914 36.3343 79.6086 36.3343 79.6585 36.4878L80.0239 37.6123C80.0462 37.681 80.1102 37.7275 80.1824 37.7275H81.3647C81.5261 37.7275 81.5933 37.9341 81.4627 38.029L80.5061 38.7239C80.4477 38.7664 80.4233 38.8416 80.4456 38.9102L80.811 40.0347C80.8608 40.1883 80.6851 40.3159 80.5545 40.221L79.598 39.5261C79.5395 39.4836 79.4605 39.4836 79.402 39.5261L78.4455 40.221C78.3149 40.3159 78.1392 40.1883 78.189 40.0347L78.5544 38.9102C78.5767 38.8416 78.5523 38.7664 78.4939 38.7239L77.5373 38.029C77.4067 37.9341 77.4739 37.7275 77.6353 37.7275H78.8176C78.8898 37.7275 78.9538 37.681 78.9761 37.6123L79.3415 36.4878Z" fill="#F4BF1A"/>
<path d="M84.3415 36.4878C84.3914 36.3343 84.6086 36.3343 84.6585 36.4878L85.0239 37.6123C85.0462 37.681 85.1102 37.7275 85.1824 37.7275H86.3647C86.5261 37.7275 86.5933 37.9341 86.4627 38.029L85.5061 38.7239C85.4477 38.7664 85.4233 38.8416 85.4456 38.9102L85.811 40.0347C85.8608 40.1883 85.6851 40.3159 85.5545 40.221L84.598 39.5261C84.5395 39.4836 84.4605 39.4836 84.402 39.5261L83.4455 40.221C83.3149 40.3159 83.1392 40.1883 83.189 40.0347L83.5544 38.9102C83.5767 38.8416 83.5523 38.7664 83.4939 38.7239L82.5373 38.029C82.4067 37.9341 82.4739 37.7275 82.6353 37.7275H83.8176C83.8898 37.7275 83.9538 37.681 83.9761 37.6123L84.3415 36.4878Z" fill="#F4BF1A"/>
<path d="M89.3415 36.4878C89.3914 36.3343 89.6086 36.3343 89.6585 36.4878L90.0239 37.6123C90.0462 37.681 90.1102 37.7275 90.1824 37.7275H91.3647C91.5261 37.7275 91.5933 37.9341 91.4627 38.029L90.5061 38.7239C90.4477 38.7664 90.4233 38.8416 90.4456 38.9102L90.811 40.0347C90.8608 40.1883 90.6851 40.3159 90.5545 40.221L89.598 39.5261C89.5395 39.4836 89.4605 39.4836 89.402 39.5261L88.4455 40.221C88.3149 40.3159 88.1392 40.1883 88.189 40.0347L88.5544 38.9102C88.5767 38.8416 88.5523 38.7664 88.4939 38.7239L87.5373 38.029C87.4067 37.9341 87.4739 37.7275 87.6353 37.7275H88.8176C88.8898 37.7275 88.9538 37.681 88.9761 37.6123L89.3415 36.4878Z" fill="#F4BF1A"/>
</svg>
