<svg width="130" height="240" viewBox="0 0 130 240" fill="none" xmlns="http://www.w3.org/2000/svg">
<rect width="130" height="240" rx="10" fill="white"/>
<rect opacity="0.1" x="67" y="24" width="55" height="8" rx="2" fill="#013A52"/>
<rect opacity="0.1" x="67" y="36" width="55" height="2" rx="1" fill="#013A52"/>
<rect opacity="0.1" x="67" y="41" width="26" height="2" rx="1" fill="#013A52"/>
<rect opacity="0.1" x="67" y="46" width="45" height="2" rx="1" fill="#013A52"/>
<rect opacity="0.1" x="8" y="24" width="55" height="54" rx="2" fill="#013A52"/>
<rect opacity="0.1" x="8" y="151" width="35" height="65" rx="2.2963" fill="#013A52"/>
<rect opacity="0.1" x="47" y="151" width="36" height="65" rx="2.2963" fill="#013A52"/>
<rect opacity="0.1" x="87" y="151" width="35" height="65" rx="2.2963" fill="#013A52"/>
<rect opacity="0.4" x="8" y="94" width="19" height="19" rx="9.5" fill="#013A52"/>
<rect opacity="0.4" x="31" y="102" width="91" height="2" rx="1" fill="#013A52"/>
<rect opacity="0.4" x="31" y="106" width="45" height="2" rx="1" fill="#013A52"/>
<rect opacity="0.4" x="31" y="110" width="17" height="2" rx="1" fill="#013A52"/>
<rect opacity="0.4" x="77" y="106" width="45" height="2" rx="1" fill="#013A52"/>
<rect opacity="0.4" x="49" y="110" width="73" height="2" rx="1" fill="#013A52"/>
<path d="M33.3415 95.4878C33.3914 95.3343 33.6086 95.3343 33.6585 95.4878L34.0239 96.6123C34.0462 96.681 34.1102 96.7275 34.1824 96.7275H35.3647C35.5261 96.7275 35.5933 96.9341 35.4627 97.029L34.5061 97.7239C34.4477 97.7664 34.4233 97.8416 34.4456 97.9102L34.811 99.0347C34.8608 99.1883 34.6851 99.3159 34.5545 99.221L33.598 98.5261C33.5395 98.4836 33.4605 98.4836 33.402 98.5261L32.4455 99.221C32.3149 99.3159 32.1392 99.1883 32.189 99.0347L32.5544 97.9102C32.5767 97.8416 32.5523 97.7664 32.4939 97.7239L31.5373 97.029C31.4067 96.9341 31.4739 96.7275 31.6353 96.7275H32.8176C32.8898 96.7275 32.9538 96.681 32.9761 96.6123L33.3415 95.4878Z" fill="#F4BF1A"/>
<path d="M38.3415 95.4878C38.3914 95.3343 38.6086 95.3343 38.6585 95.4878L39.0239 96.6123C39.0462 96.681 39.1102 96.7275 39.1824 96.7275H40.3647C40.5261 96.7275 40.5933 96.9341 40.4627 97.029L39.5061 97.7239C39.4477 97.7664 39.4233 97.8416 39.4456 97.9102L39.811 99.0347C39.8608 99.1883 39.6851 99.3159 39.5545 99.221L38.598 98.5261C38.5395 98.4836 38.4605 98.4836 38.402 98.5261L37.4455 99.221C37.3149 99.3159 37.1392 99.1883 37.189 99.0347L37.5544 97.9102C37.5767 97.8416 37.5523 97.7664 37.4939 97.7239L36.5373 97.029C36.4067 96.9341 36.4739 96.7275 36.6353 96.7275H37.8176C37.8898 96.7275 37.9538 96.681 37.9761 96.6123L38.3415 95.4878Z" fill="#F4BF1A"/>
<path d="M43.3415 95.4878C43.3914 95.3343 43.6086 95.3343 43.6585 95.4878L44.0239 96.6123C44.0462 96.681 44.1102 96.7275 44.1824 96.7275H45.3647C45.5261 96.7275 45.5933 96.9341 45.4627 97.029L44.5061 97.7239C44.4477 97.7664 44.4233 97.8416 44.4456 97.9102L44.811 99.0347C44.8608 99.1883 44.6851 99.3159 44.5545 99.221L43.598 98.5261C43.5395 98.4836 43.4605 98.4836 43.402 98.5261L42.4455 99.221C42.3149 99.3159 42.1392 99.1883 42.189 99.0347L42.5544 97.9102C42.5767 97.8416 42.5523 97.7664 42.4939 97.7239L41.5373 97.029C41.4067 96.9341 41.4739 96.7275 41.6353 96.7275H42.8176C42.8898 96.7275 42.9538 96.681 42.9761 96.6123L43.3415 95.4878Z" fill="#F4BF1A"/>
<path d="M48.3415 95.4878C48.3914 95.3343 48.6086 95.3343 48.6585 95.4878L49.0239 96.6123C49.0462 96.681 49.1102 96.7275 49.1824 96.7275H50.3647C50.5261 96.7275 50.5933 96.9341 50.4627 97.029L49.5061 97.7239C49.4477 97.7664 49.4233 97.8416 49.4456 97.9102L49.811 99.0347C49.8608 99.1883 49.6851 99.3159 49.5545 99.221L48.598 98.5261C48.5395 98.4836 48.4605 98.4836 48.402 98.5261L47.4455 99.221C47.3149 99.3159 47.1392 99.1883 47.189 99.0347L47.5544 97.9102C47.5767 97.8416 47.5523 97.7664 47.4939 97.7239L46.5373 97.029C46.4067 96.9341 46.4739 96.7275 46.6353 96.7275H47.8176C47.8898 96.7275 47.9538 96.681 47.9761 96.6123L48.3415 95.4878Z" fill="#F4BF1A"/>
<path d="M53.3415 95.4878C53.3914 95.3343 53.6086 95.3343 53.6585 95.4878L54.0239 96.6123C54.0462 96.681 54.1102 96.7275 54.1824 96.7275H55.3647C55.5261 96.7275 55.5933 96.9341 55.4627 97.029L54.5061 97.7239C54.4477 97.7664 54.4233 97.8416 54.4456 97.9102L54.811 99.0347C54.8608 99.1883 54.6851 99.3159 54.5545 99.221L53.598 98.5261C53.5395 98.4836 53.4605 98.4836 53.402 98.5261L52.4455 99.221C52.3149 99.3159 52.1392 99.1883 52.189 99.0347L52.5544 97.9102C52.5767 97.8416 52.5523 97.7664 52.4939 97.7239L51.5373 97.029C51.4067 96.9341 51.4739 96.7275 51.6353 96.7275H52.8176C52.8898 96.7275 52.9538 96.681 52.9761 96.6123L53.3415 95.4878Z" fill="#F4BF1A"/>
<rect opacity="0.4" x="8" y="121" width="19" height="19" rx="9.5" fill="#013A52"/>
<rect opacity="0.4" x="31" y="129" width="91" height="2" rx="1" fill="#013A52"/>
<rect opacity="0.4" x="31" y="133" width="45" height="2" rx="1" fill="#013A52"/>
<rect opacity="0.4" x="31" y="137" width="17" height="2" rx="1" fill="#013A52"/>
<rect opacity="0.4" x="77" y="133" width="45" height="2" rx="1" fill="#013A52"/>
<rect opacity="0.4" x="49" y="137" width="73" height="2" rx="1" fill="#013A52"/>
<path d="M33.3415 122.488C33.3914 122.334 33.6086 122.334 33.6585 122.488L34.0239 123.612C34.0462 123.681 34.1102 123.727 34.1824 123.727H35.3647C35.5261 123.727 35.5933 123.934 35.4627 124.029L34.5061 124.724C34.4477 124.766 34.4233 124.842 34.4456 124.91L34.811 126.035C34.8608 126.188 34.6851 126.316 34.5545 126.221L33.598 125.526C33.5395 125.484 33.4605 125.484 33.402 125.526L32.4455 126.221C32.3149 126.316 32.1392 126.188 32.189 126.035L32.5544 124.91C32.5767 124.842 32.5523 124.766 32.4939 124.724L31.5373 124.029C31.4067 123.934 31.4739 123.727 31.6353 123.727H32.8176C32.8898 123.727 32.9538 123.681 32.9761 123.612L33.3415 122.488Z" fill="#F4BF1A"/>
<path d="M38.3415 122.488C38.3914 122.334 38.6086 122.334 38.6585 122.488L39.0239 123.612C39.0462 123.681 39.1102 123.727 39.1824 123.727H40.3647C40.5261 123.727 40.5933 123.934 40.4627 124.029L39.5061 124.724C39.4477 124.766 39.4233 124.842 39.4456 124.91L39.811 126.035C39.8608 126.188 39.6851 126.316 39.5545 126.221L38.598 125.526C38.5395 125.484 38.4605 125.484 38.402 125.526L37.4455 126.221C37.3149 126.316 37.1392 126.188 37.189 126.035L37.5544 124.91C37.5767 124.842 37.5523 124.766 37.4939 124.724L36.5373 124.029C36.4067 123.934 36.4739 123.727 36.6353 123.727H37.8176C37.8898 123.727 37.9538 123.681 37.9761 123.612L38.3415 122.488Z" fill="#F4BF1A"/>
<path d="M43.3415 122.488C43.3914 122.334 43.6086 122.334 43.6585 122.488L44.0239 123.612C44.0462 123.681 44.1102 123.727 44.1824 123.727H45.3647C45.5261 123.727 45.5933 123.934 45.4627 124.029L44.5061 124.724C44.4477 124.766 44.4233 124.842 44.4456 124.91L44.811 126.035C44.8608 126.188 44.6851 126.316 44.5545 126.221L43.598 125.526C43.5395 125.484 43.4605 125.484 43.402 125.526L42.4455 126.221C42.3149 126.316 42.1392 126.188 42.189 126.035L42.5544 124.91C42.5767 124.842 42.5523 124.766 42.4939 124.724L41.5373 124.029C41.4067 123.934 41.4739 123.727 41.6353 123.727H42.8176C42.8898 123.727 42.9538 123.681 42.9761 123.612L43.3415 122.488Z" fill="#F4BF1A"/>
<path d="M48.3415 122.488C48.3914 122.334 48.6086 122.334 48.6585 122.488L49.0239 123.612C49.0462 123.681 49.1102 123.727 49.1824 123.727H50.3647C50.5261 123.727 50.5933 123.934 50.4627 124.029L49.5061 124.724C49.4477 124.766 49.4233 124.842 49.4456 124.91L49.811 126.035C49.8608 126.188 49.6851 126.316 49.5545 126.221L48.598 125.526C48.5395 125.484 48.4605 125.484 48.402 125.526L47.4455 126.221C47.3149 126.316 47.1392 126.188 47.189 126.035L47.5544 124.91C47.5767 124.842 47.5523 124.766 47.4939 124.724L46.5373 124.029C46.4067 123.934 46.4739 123.727 46.6353 123.727H47.8176C47.8898 123.727 47.9538 123.681 47.9761 123.612L48.3415 122.488Z" fill="#F4BF1A"/>
<path d="M53.3415 122.488C53.3914 122.334 53.6086 122.334 53.6585 122.488L54.0239 123.612C54.0462 123.681 54.1102 123.727 54.1824 123.727H55.3647C55.5261 123.727 55.5933 123.934 55.4627 124.029L54.5061 124.724C54.4477 124.766 54.4233 124.842 54.4456 124.91L54.811 126.035C54.8608 126.188 54.6851 126.316 54.5545 126.221L53.598 125.526C53.5395 125.484 53.4605 125.484 53.402 125.526L52.4455 126.221C52.3149 126.316 52.1392 126.188 52.189 126.035L52.5544 124.91C52.5767 124.842 52.5523 124.766 52.4939 124.724L51.5373 124.029C51.4067 123.934 51.4739 123.727 51.6353 123.727H52.8176C52.8898 123.727 52.9538 123.681 52.9761 123.612L53.3415 122.488Z" fill="#F4BF1A"/>
</svg>
